<mxfile host="app.diagrams.net" agent="Mozilla/5.0 (Windows NT 10.0; Win64; x64) AppleWebKit/537.36 (KHTML, like Gecko) Chrome/129.0.0.0 Safari/537.36" version="24.7.16">
  <diagram id="C5RBs43oDa-KdzZeNtuy" name="Page-1">
    <mxGraphModel dx="1665" dy="2112" grid="1" gridSize="10" guides="1" tooltips="1" connect="1" arrows="1" fold="1" page="1" pageScale="1" pageWidth="827" pageHeight="1169" math="0" shadow="0">
      <root>
        <mxCell id="WIyWlLk6GJQsqaUBKTNV-0" />
        <mxCell id="WIyWlLk6GJQsqaUBKTNV-1" parent="WIyWlLk6GJQsqaUBKTNV-0" />
        <mxCell id="hdR7YwD5a6wMg6RphiPX-0" value="PropiedadEnComun" style="swimlane;fontStyle=1;align=center;verticalAlign=top;childLayout=stackLayout;horizontal=1;startSize=26;horizontalStack=0;resizeParent=1;resizeParentMax=0;resizeLast=0;collapsible=1;marginBottom=0;whiteSpace=wrap;html=1;" vertex="1" parent="WIyWlLk6GJQsqaUBKTNV-1">
          <mxGeometry x="480" y="220" width="210" height="80" as="geometry" />
        </mxCell>
        <mxCell id="hdR7YwD5a6wMg6RphiPX-2" value="" style="line;strokeWidth=1;fillColor=none;align=left;verticalAlign=middle;spacingTop=-1;spacingLeft=3;spacingRight=3;rotatable=0;labelPosition=right;points=[];portConstraint=eastwest;strokeColor=inherit;" vertex="1" parent="hdR7YwD5a6wMg6RphiPX-0">
          <mxGeometry y="26" width="210" height="8" as="geometry" />
        </mxCell>
        <mxCell id="hdR7YwD5a6wMg6RphiPX-31" value="+ sonSimilares(WikipediaPage page, WikipediaPage otherPage): boolean" style="text;strokeColor=none;fillColor=none;align=left;verticalAlign=top;spacingLeft=4;spacingRight=4;overflow=hidden;rotatable=0;points=[[0,0.5],[1,0.5]];portConstraint=eastwest;whiteSpace=wrap;html=1;" vertex="1" parent="hdR7YwD5a6wMg6RphiPX-0">
          <mxGeometry y="34" width="210" height="46" as="geometry" />
        </mxCell>
        <mxCell id="hdR7YwD5a6wMg6RphiPX-8" value="MismaLetraInicial" style="swimlane;fontStyle=1;align=center;verticalAlign=top;childLayout=stackLayout;horizontal=1;startSize=26;horizontalStack=0;resizeParent=1;resizeParentMax=0;resizeLast=0;collapsible=1;marginBottom=0;whiteSpace=wrap;html=1;" vertex="1" parent="WIyWlLk6GJQsqaUBKTNV-1">
          <mxGeometry x="-40" y="210" width="230" height="80" as="geometry" />
        </mxCell>
        <mxCell id="hdR7YwD5a6wMg6RphiPX-10" value="" style="line;strokeWidth=1;fillColor=none;align=left;verticalAlign=middle;spacingTop=-1;spacingLeft=3;spacingRight=3;rotatable=0;labelPosition=right;points=[];portConstraint=eastwest;strokeColor=inherit;" vertex="1" parent="hdR7YwD5a6wMg6RphiPX-8">
          <mxGeometry y="26" width="230" height="8" as="geometry" />
        </mxCell>
        <mxCell id="hdR7YwD5a6wMg6RphiPX-11" value="+ sonSimilares(WikipediaPage page, WikipediaPage otherPage): boolean" style="text;strokeColor=none;fillColor=none;align=left;verticalAlign=top;spacingLeft=4;spacingRight=4;overflow=hidden;rotatable=0;points=[[0,0.5],[1,0.5]];portConstraint=eastwest;whiteSpace=wrap;html=1;" vertex="1" parent="hdR7YwD5a6wMg6RphiPX-8">
          <mxGeometry y="34" width="230" height="46" as="geometry" />
        </mxCell>
        <mxCell id="hdR7YwD5a6wMg6RphiPX-12" value="Wikipedia" style="swimlane;fontStyle=1;align=center;verticalAlign=top;childLayout=stackLayout;horizontal=1;startSize=26;horizontalStack=0;resizeParent=1;resizeParentMax=0;resizeLast=0;collapsible=1;marginBottom=0;whiteSpace=wrap;html=1;" vertex="1" parent="WIyWlLk6GJQsqaUBKTNV-1">
          <mxGeometry x="500" y="-210" width="210" height="100" as="geometry" />
        </mxCell>
        <mxCell id="hdR7YwD5a6wMg6RphiPX-13" value="- páginas: List&amp;lt;WikipediaPages&amp;gt;" style="text;strokeColor=none;fillColor=none;align=left;verticalAlign=top;spacingLeft=4;spacingRight=4;overflow=hidden;rotatable=0;points=[[0,0.5],[1,0.5]];portConstraint=eastwest;whiteSpace=wrap;html=1;" vertex="1" parent="hdR7YwD5a6wMg6RphiPX-12">
          <mxGeometry y="26" width="210" height="26" as="geometry" />
        </mxCell>
        <mxCell id="hdR7YwD5a6wMg6RphiPX-14" value="" style="line;strokeWidth=1;fillColor=none;align=left;verticalAlign=middle;spacingTop=-1;spacingLeft=3;spacingRight=3;rotatable=0;labelPosition=right;points=[];portConstraint=eastwest;strokeColor=inherit;" vertex="1" parent="hdR7YwD5a6wMg6RphiPX-12">
          <mxGeometry y="52" width="210" height="8" as="geometry" />
        </mxCell>
        <mxCell id="hdR7YwD5a6wMg6RphiPX-15" value="+ getPáginas(): List&amp;lt;WikipediaPages&amp;gt;" style="text;strokeColor=none;fillColor=none;align=left;verticalAlign=top;spacingLeft=4;spacingRight=4;overflow=hidden;rotatable=0;points=[[0,0.5],[1,0.5]];portConstraint=eastwest;whiteSpace=wrap;html=1;" vertex="1" parent="hdR7YwD5a6wMg6RphiPX-12">
          <mxGeometry y="60" width="210" height="40" as="geometry" />
        </mxCell>
        <mxCell id="hdR7YwD5a6wMg6RphiPX-16" value="Filtro" style="swimlane;fontStyle=1;align=center;verticalAlign=top;childLayout=stackLayout;horizontal=1;startSize=26;horizontalStack=0;resizeParent=1;resizeParentMax=0;resizeLast=0;collapsible=1;marginBottom=0;whiteSpace=wrap;html=1;" vertex="1" parent="WIyWlLk6GJQsqaUBKTNV-1">
          <mxGeometry x="120" y="10" width="430" height="156" as="geometry" />
        </mxCell>
        <mxCell id="hdR7YwD5a6wMg6RphiPX-17" value="- field: type" style="text;strokeColor=none;fillColor=none;align=left;verticalAlign=top;spacingLeft=4;spacingRight=4;overflow=hidden;rotatable=0;points=[[0,0.5],[1,0.5]];portConstraint=eastwest;whiteSpace=wrap;html=1;" vertex="1" parent="hdR7YwD5a6wMg6RphiPX-16">
          <mxGeometry y="26" width="430" height="26" as="geometry" />
        </mxCell>
        <mxCell id="hdR7YwD5a6wMg6RphiPX-18" value="" style="line;strokeWidth=1;fillColor=none;align=left;verticalAlign=middle;spacingTop=-1;spacingLeft=3;spacingRight=3;rotatable=0;labelPosition=right;points=[];portConstraint=eastwest;strokeColor=inherit;" vertex="1" parent="hdR7YwD5a6wMg6RphiPX-16">
          <mxGeometry y="52" width="430" height="8" as="geometry" />
        </mxCell>
        <mxCell id="hdR7YwD5a6wMg6RphiPX-29" value="+&amp;nbsp;&lt;span style=&quot;&quot;&gt;sonSimilares&lt;/span&gt;(WikipediaPage page, WikipediaPage otherPage): boolean" style="text;strokeColor=none;fillColor=none;align=left;verticalAlign=top;spacingLeft=4;spacingRight=4;overflow=hidden;rotatable=0;points=[[0,0.5],[1,0.5]];portConstraint=eastwest;whiteSpace=wrap;html=1;fontStyle=2" vertex="1" parent="hdR7YwD5a6wMg6RphiPX-16">
          <mxGeometry y="60" width="430" height="46" as="geometry" />
        </mxCell>
        <mxCell id="hdR7YwD5a6wMg6RphiPX-19" value="+ getSimilarPages(WikipediaPage page, List&amp;lt;WikipediaPage&amp;gt; wikipedia): List&amp;lt;WikipediaPage&amp;gt;" style="text;strokeColor=none;fillColor=none;align=left;verticalAlign=top;spacingLeft=4;spacingRight=4;overflow=hidden;rotatable=0;points=[[0,0.5],[1,0.5]];portConstraint=eastwest;whiteSpace=wrap;html=1;" vertex="1" parent="hdR7YwD5a6wMg6RphiPX-16">
          <mxGeometry y="106" width="430" height="50" as="geometry" />
        </mxCell>
        <mxCell id="hdR7YwD5a6wMg6RphiPX-20" value="&lt;p style=&quot;margin:0px;margin-top:4px;text-align:center;&quot;&gt;&lt;i&gt;&amp;lt;&amp;lt;Interface&amp;gt;&amp;gt;&lt;/i&gt;&lt;br&gt;&lt;b&gt;WikipediaPage&lt;/b&gt;&lt;/p&gt;&lt;hr size=&quot;1&quot; style=&quot;border-style:solid;&quot;&gt;&lt;p style=&quot;margin:0px;margin-left:4px;&quot;&gt;&lt;/p&gt;&lt;p style=&quot;margin:0px;margin-left:4px;&quot;&gt;+ getTitle(): String&lt;br&gt;+ getLinks(): List&amp;lt;WikipediaPage&amp;gt;&lt;/p&gt;&lt;p style=&quot;margin:0px;margin-left:4px;&quot;&gt;+ getInfobox(): Map&amp;lt;String, WikipediaPage&amp;gt;&lt;br&gt;&lt;/p&gt;" style="verticalAlign=top;align=left;overflow=fill;html=1;whiteSpace=wrap;" vertex="1" parent="WIyWlLk6GJQsqaUBKTNV-1">
          <mxGeometry x="180" y="-210" width="260" height="110" as="geometry" />
        </mxCell>
        <mxCell id="hdR7YwD5a6wMg6RphiPX-21" value="LinkEnComun" style="swimlane;fontStyle=1;align=center;verticalAlign=top;childLayout=stackLayout;horizontal=1;startSize=26;horizontalStack=0;resizeParent=1;resizeParentMax=0;resizeLast=0;collapsible=1;marginBottom=0;whiteSpace=wrap;html=1;" vertex="1" parent="WIyWlLk6GJQsqaUBKTNV-1">
          <mxGeometry x="215" y="220" width="240" height="80" as="geometry" />
        </mxCell>
        <mxCell id="hdR7YwD5a6wMg6RphiPX-23" value="" style="line;strokeWidth=1;fillColor=none;align=left;verticalAlign=middle;spacingTop=-1;spacingLeft=3;spacingRight=3;rotatable=0;labelPosition=right;points=[];portConstraint=eastwest;strokeColor=inherit;" vertex="1" parent="hdR7YwD5a6wMg6RphiPX-21">
          <mxGeometry y="26" width="240" height="8" as="geometry" />
        </mxCell>
        <mxCell id="hdR7YwD5a6wMg6RphiPX-30" value="+ sonSimilares(WikipediaPage page, WikipediaPage otherPage): boolean" style="text;strokeColor=none;fillColor=none;align=left;verticalAlign=top;spacingLeft=4;spacingRight=4;overflow=hidden;rotatable=0;points=[[0,0.5],[1,0.5]];portConstraint=eastwest;whiteSpace=wrap;html=1;" vertex="1" parent="hdR7YwD5a6wMg6RphiPX-21">
          <mxGeometry y="34" width="240" height="46" as="geometry" />
        </mxCell>
        <mxCell id="hdR7YwD5a6wMg6RphiPX-25" value="" style="endArrow=block;endSize=16;endFill=0;html=1;rounded=0;exitX=0.5;exitY=0;exitDx=0;exitDy=0;entryX=0.464;entryY=1.104;entryDx=0;entryDy=0;entryPerimeter=0;" edge="1" parent="WIyWlLk6GJQsqaUBKTNV-1" source="hdR7YwD5a6wMg6RphiPX-8" target="hdR7YwD5a6wMg6RphiPX-19">
          <mxGeometry width="160" relative="1" as="geometry">
            <mxPoint x="270" y="140" as="sourcePoint" />
            <mxPoint x="430" y="140" as="targetPoint" />
          </mxGeometry>
        </mxCell>
        <mxCell id="hdR7YwD5a6wMg6RphiPX-26" value="" style="endArrow=block;endSize=16;endFill=0;html=1;rounded=0;exitX=0.5;exitY=0;exitDx=0;exitDy=0;entryX=0.471;entryY=1.06;entryDx=0;entryDy=0;entryPerimeter=0;" edge="1" parent="WIyWlLk6GJQsqaUBKTNV-1" source="hdR7YwD5a6wMg6RphiPX-21" target="hdR7YwD5a6wMg6RphiPX-19">
          <mxGeometry width="160" relative="1" as="geometry">
            <mxPoint x="60" y="220" as="sourcePoint" />
            <mxPoint x="330" y="130" as="targetPoint" />
          </mxGeometry>
        </mxCell>
        <mxCell id="hdR7YwD5a6wMg6RphiPX-27" value="" style="endArrow=block;endSize=16;endFill=0;html=1;rounded=0;exitX=0.5;exitY=0;exitDx=0;exitDy=0;entryX=0.471;entryY=1.149;entryDx=0;entryDy=0;entryPerimeter=0;" edge="1" parent="WIyWlLk6GJQsqaUBKTNV-1" source="hdR7YwD5a6wMg6RphiPX-0" target="hdR7YwD5a6wMg6RphiPX-19">
          <mxGeometry width="160" relative="1" as="geometry">
            <mxPoint x="460" y="210" as="sourcePoint" />
            <mxPoint x="460" y="110" as="targetPoint" />
          </mxGeometry>
        </mxCell>
        <mxCell id="hdR7YwD5a6wMg6RphiPX-32" value="Vale template method para estas pocas cosas?" style="text;html=1;align=center;verticalAlign=middle;resizable=0;points=[];autosize=1;strokeColor=none;fillColor=none;" vertex="1" parent="WIyWlLk6GJQsqaUBKTNV-1">
          <mxGeometry x="-10" y="-52" width="280" height="30" as="geometry" />
        </mxCell>
        <mxCell id="hdR7YwD5a6wMg6RphiPX-37" style="edgeStyle=orthogonalEdgeStyle;rounded=0;orthogonalLoop=1;jettySize=auto;html=1;" edge="1" parent="WIyWlLk6GJQsqaUBKTNV-1" source="hdR7YwD5a6wMg6RphiPX-33" target="hdR7YwD5a6wMg6RphiPX-36">
          <mxGeometry relative="1" as="geometry" />
        </mxCell>
        <mxCell id="hdR7YwD5a6wMg6RphiPX-33" value="MismaLetraInicial" style="text;html=1;align=center;verticalAlign=middle;resizable=0;points=[];autosize=1;strokeColor=none;fillColor=none;" vertex="1" parent="WIyWlLk6GJQsqaUBKTNV-1">
          <mxGeometry x="15" y="500" width="120" height="30" as="geometry" />
        </mxCell>
        <mxCell id="hdR7YwD5a6wMg6RphiPX-34" value="WikipediaPage bernal" style="text;html=1;align=center;verticalAlign=middle;resizable=0;points=[];autosize=1;strokeColor=none;fillColor=none;" vertex="1" parent="WIyWlLk6GJQsqaUBKTNV-1">
          <mxGeometry x="180" y="500" width="140" height="30" as="geometry" />
        </mxCell>
        <mxCell id="hdR7YwD5a6wMg6RphiPX-43" style="edgeStyle=orthogonalEdgeStyle;rounded=0;orthogonalLoop=1;jettySize=auto;html=1;" edge="1" parent="WIyWlLk6GJQsqaUBKTNV-1" source="hdR7YwD5a6wMg6RphiPX-36">
          <mxGeometry relative="1" as="geometry">
            <mxPoint x="90" y="780" as="targetPoint" />
          </mxGeometry>
        </mxCell>
        <mxCell id="hdR7YwD5a6wMg6RphiPX-50" value="si pasa" style="edgeLabel;html=1;align=center;verticalAlign=middle;resizable=0;points=[];" vertex="1" connectable="0" parent="hdR7YwD5a6wMg6RphiPX-43">
          <mxGeometry x="0.5034" relative="1" as="geometry">
            <mxPoint as="offset" />
          </mxGeometry>
        </mxCell>
        <mxCell id="hdR7YwD5a6wMg6RphiPX-36" value="getSimilarPages(bernal, wikipedia)" style="text;html=1;align=center;verticalAlign=middle;resizable=0;points=[];autosize=1;strokeColor=none;fillColor=none;" vertex="1" parent="WIyWlLk6GJQsqaUBKTNV-1">
          <mxGeometry x="-15" y="660" width="210" height="30" as="geometry" />
        </mxCell>
        <mxCell id="hdR7YwD5a6wMg6RphiPX-38" style="edgeStyle=orthogonalEdgeStyle;rounded=0;orthogonalLoop=1;jettySize=auto;html=1;entryX=0.49;entryY=-0.012;entryDx=0;entryDy=0;entryPerimeter=0;" edge="1" parent="WIyWlLk6GJQsqaUBKTNV-1" source="hdR7YwD5a6wMg6RphiPX-34" target="hdR7YwD5a6wMg6RphiPX-36">
          <mxGeometry relative="1" as="geometry">
            <Array as="points">
              <mxPoint x="250" y="600" />
              <mxPoint x="89" y="600" />
            </Array>
          </mxGeometry>
        </mxCell>
        <mxCell id="hdR7YwD5a6wMg6RphiPX-42" style="edgeStyle=orthogonalEdgeStyle;rounded=0;orthogonalLoop=1;jettySize=auto;html=1;" edge="1" parent="WIyWlLk6GJQsqaUBKTNV-1" source="hdR7YwD5a6wMg6RphiPX-39" target="hdR7YwD5a6wMg6RphiPX-36">
          <mxGeometry relative="1" as="geometry">
            <Array as="points">
              <mxPoint x="414" y="600" />
              <mxPoint x="90" y="600" />
            </Array>
          </mxGeometry>
        </mxCell>
        <mxCell id="hdR7YwD5a6wMg6RphiPX-39" value="WikipediaPage quilmes" style="text;html=1;align=center;verticalAlign=middle;resizable=0;points=[];autosize=1;strokeColor=none;fillColor=none;" vertex="1" parent="WIyWlLk6GJQsqaUBKTNV-1">
          <mxGeometry x="510" y="600" width="150" height="30" as="geometry" />
        </mxCell>
        <mxCell id="hdR7YwD5a6wMg6RphiPX-40" value="WikipediaPage buenosAires" style="text;html=1;align=center;verticalAlign=middle;resizable=0;points=[];autosize=1;strokeColor=none;fillColor=none;" vertex="1" parent="WIyWlLk6GJQsqaUBKTNV-1">
          <mxGeometry x="390" y="770" width="170" height="30" as="geometry" />
        </mxCell>
        <mxCell id="hdR7YwD5a6wMg6RphiPX-41" style="edgeStyle=orthogonalEdgeStyle;rounded=0;orthogonalLoop=1;jettySize=auto;html=1;entryX=0.497;entryY=0.128;entryDx=0;entryDy=0;entryPerimeter=0;" edge="1" parent="WIyWlLk6GJQsqaUBKTNV-1" source="hdR7YwD5a6wMg6RphiPX-40" target="hdR7YwD5a6wMg6RphiPX-36">
          <mxGeometry relative="1" as="geometry">
            <Array as="points">
              <mxPoint x="435" y="600" />
              <mxPoint x="90" y="600" />
            </Array>
          </mxGeometry>
        </mxCell>
        <mxCell id="hdR7YwD5a6wMg6RphiPX-47" value="wikipedia" style="edgeLabel;html=1;align=center;verticalAlign=middle;resizable=0;points=[];" vertex="1" connectable="0" parent="hdR7YwD5a6wMg6RphiPX-41">
          <mxGeometry x="0.4884" y="2" relative="1" as="geometry">
            <mxPoint as="offset" />
          </mxGeometry>
        </mxCell>
        <mxCell id="hdR7YwD5a6wMg6RphiPX-44" value="+ sonSimilares(WikipediaPage page, WikipediaPage otherPage): boolean" style="text;strokeColor=none;fillColor=none;align=left;verticalAlign=top;spacingLeft=4;spacingRight=4;overflow=hidden;rotatable=0;points=[[0,0.5],[1,0.5]];portConstraint=eastwest;whiteSpace=wrap;html=1;" vertex="1" parent="WIyWlLk6GJQsqaUBKTNV-1">
          <mxGeometry x="-15" y="790" width="230" height="40" as="geometry" />
        </mxCell>
        <mxCell id="hdR7YwD5a6wMg6RphiPX-45" value="Por cada página de wikipedia" style="text;html=1;align=center;verticalAlign=middle;resizable=0;points=[];autosize=1;strokeColor=none;fillColor=none;" vertex="1" parent="WIyWlLk6GJQsqaUBKTNV-1">
          <mxGeometry y="720" width="180" height="30" as="geometry" />
        </mxCell>
        <mxCell id="hdR7YwD5a6wMg6RphiPX-48" style="edgeStyle=orthogonalEdgeStyle;rounded=0;orthogonalLoop=1;jettySize=auto;html=1;" edge="1" parent="WIyWlLk6GJQsqaUBKTNV-1">
          <mxGeometry relative="1" as="geometry">
            <mxPoint x="89.47" y="920" as="targetPoint" />
            <mxPoint x="89.47" y="830" as="sourcePoint" />
          </mxGeometry>
        </mxCell>
        <mxCell id="hdR7YwD5a6wMg6RphiPX-51" value="se almacena en una lista" style="edgeLabel;html=1;align=center;verticalAlign=middle;resizable=0;points=[];" vertex="1" connectable="0" parent="hdR7YwD5a6wMg6RphiPX-48">
          <mxGeometry x="-0.6924" y="-4" relative="1" as="geometry">
            <mxPoint as="offset" />
          </mxGeometry>
        </mxCell>
        <mxCell id="hdR7YwD5a6wMg6RphiPX-52" value="return paginasFiltradas -&amp;gt; (BuenosAires)" style="text;strokeColor=none;fillColor=none;align=left;verticalAlign=top;spacingLeft=4;spacingRight=4;overflow=hidden;rotatable=0;points=[[0,0.5],[1,0.5]];portConstraint=eastwest;whiteSpace=wrap;html=1;" vertex="1" parent="WIyWlLk6GJQsqaUBKTNV-1">
          <mxGeometry x="30" y="920" width="230" height="40" as="geometry" />
        </mxCell>
      </root>
    </mxGraphModel>
  </diagram>
</mxfile>
